<svg xmlns="http://www.w3.org/2000/svg" viewBox="0 0 1055.38 710.17"><defs><style>.cls-1{fill:#fff;}</style></defs><title>LOGO SVG (NEGATIVO)</title><g id="Capa_1" data-name="Capa 1"><path class="cls-1" d="M1041.79,771.88a8.44,8.44,0,0,0,12.25,2.63c3.58-2.56,4.33-7.63,2.13-11.45L951.38,580.78a8.42,8.42,0,0,0-7.31-4.23h0a8.43,8.43,0,0,0-7.31,12.63Z" transform="translate(-39.03 -70)"/><path class="cls-1" d="M674.62,133.19l170.16,296a8.42,8.42,0,0,0,7.31,4.23h0a8.43,8.43,0,0,0,7.31-12.64L657.75,70V425a8.44,8.44,0,0,0,8.43,8.43h0a8.44,8.44,0,0,0,8.44-8.43Z" transform="translate(-39.03 -70)"/><path class="cls-1" d="M90.79,753.37a8.92,8.92,0,0,0,2.85,11.86h0A8,8,0,0,0,105,762.5L206.07,589.23a8.43,8.43,0,0,0-7.29-12.68h0a8.45,8.45,0,0,0-7.29,4.18Z" transform="translate(-39.03 -70)"/><path class="cls-1" d="M657.75,763.3H489.19V585a8.42,8.42,0,0,0-8.43-8.43h0a8.43,8.43,0,0,0-8.44,8.43V780.17h202.3V585a8.43,8.43,0,0,0-8.43-8.43h0a8.43,8.43,0,0,0-8.43,8.43Z" transform="translate(-39.03 -70)"/><path class="cls-1" d="M472.32,132.79V425a8.44,8.44,0,0,0,8.44,8.43h0a8.43,8.43,0,0,0,8.43-8.43V70.4L284.83,420.73a8.43,8.43,0,0,0,7.29,12.68h0a8.42,8.42,0,0,0,7.28-4.18Z" transform="translate(-39.03 -70)"/><path class="cls-1" d="M80.31,456.71,39,547H51.74L62.2,523.64h47L119.68,547h12.84l-41.28-90.3Zm-13.5,56.63,18.9-42.23,18.9,42.23Z" transform="translate(-39.03 -70)"/><path class="cls-1" d="M274.31,503.32a54.76,54.76,0,0,0-10.77-4.3c-3.83-1.1-7.7-2.11-11.5-3a96.94,96.94,0,0,1-10.41-3.08,18.24,18.24,0,0,1-7.21-4.52,10.16,10.16,0,0,1-2.55-7.29,12.4,12.4,0,0,1,2.19-7.27,15.14,15.14,0,0,1,6.94-5.18,33,33,0,0,1,12.47-2,44.66,44.66,0,0,1,11.81,1.69,40.37,40.37,0,0,1,11.54,5.32l1.4.94,4.23-10-.94-.65a43.45,43.45,0,0,0-12.91-5.88,55,55,0,0,0-15-2.12c-7.58,0-13.92,1.16-18.84,3.45a25.46,25.46,0,0,0-11.16,9.27,23.39,23.39,0,0,0-3.65,12.68c0,4.94,1.07,9,3.18,12.1a23.31,23.31,0,0,0,8.24,7.38,49.69,49.69,0,0,0,10.87,4.31c3.78,1,7.67,2,11.54,3a83.89,83.89,0,0,1,10.32,3.14,18.86,18.86,0,0,1,7.17,4.58,10.14,10.14,0,0,1,2.56,7.3,11.77,11.77,0,0,1-2.19,6.94,15,15,0,0,1-7,5.07,35.8,35.8,0,0,1-12.92,2,43.34,43.34,0,0,1-15.93-3,35.52,35.52,0,0,1-12-7.26l-1.36-1.32-5,9.71.7.71c3.39,3.48,8.22,6.35,14.35,8.53a56.89,56.89,0,0,0,19.16,3.27c7.66,0,14.06-1.16,19-3.44A25.74,25.74,0,0,0,282,535.06a22.89,22.89,0,0,0,3.72-12.57c0-4.85-1.07-8.86-3.18-11.92A23,23,0,0,0,274.31,503.32Z" transform="translate(-39.03 -70)"/><polygon class="cls-1" points="333.04 397.51 363.79 397.51 363.79 477.01 375.84 477.01 375.84 397.51 406.59 397.51 406.59 386.71 333.04 386.71 333.04 397.51"/><path class="cls-1" d="M775.92,515.58a29.07,29.07,0,0,0,12.93-10.77,30.29,30.29,0,0,0,4.53-16.7,30.74,30.74,0,0,0-4.53-16.94,29.09,29.09,0,0,0-12.93-10.78,48.42,48.42,0,0,0-19.69-3.68H722.08V547h12V519.26h22.1a59.94,59.94,0,0,0,6.39-.32L782.5,547h13.57L774.19,516.3C774.78,516.07,775.36,515.83,775.92,515.58Zm5.41-27.47c0,6.54-2.06,11.47-6.31,15.06s-10.67,5.42-19,5.42H734.13V467.51H756c8.36,0,14.77,1.82,19,5.42S781.33,481.49,781.33,488.11Z" transform="translate(-39.03 -70)"/><rect class="cls-1" x="856.18" y="386.71" width="12.05" height="90.3"/><path class="cls-1" d="M1053.13,456.71h-10.92L1000.93,547h12.71l10.46-23.37h47L1081.58,547h12.83Zm-24.42,56.63,18.9-42.23,18.9,42.23Z" transform="translate(-39.03 -70)"/><polygon class="cls-1" points="535.84 461.77 502 384.87 488.56 384.87 529.99 478.41 541.27 478.41 582.69 384.87 569.91 384.87 535.84 461.77"/></g></svg>